<?xml version="1.0" standalone="no"?><!DOCTYPE svg PUBLIC "-//W3C//DTD SVG 1.1//EN" "http://www.w3.org/Graphics/SVG/1.1/DTD/svg11.dtd"><svg t="1661999847286" class="icon" viewBox="0 0 1024 1024" version="1.1" xmlns="http://www.w3.org/2000/svg" p-id="2014" xmlns:xlink="http://www.w3.org/1999/xlink" width="200" height="200"><path d="M326.731948 580.577888c-54.56371 27.701922-101.202936 63.781652-101.202936 99.585089l0 18.565844c0 38.343283 101.105722 71.38277 101.105722 71.38277l39.070854-4.948709-3.493567 0.097214C362.213044 765.259074 329.448826 579.23531 326.731948 580.577888zM622.286314 272.829805c0-87.570451-119.185496-131.298372-119.185496-131.298372-16.883529-7.616468-33.605376-5.90243-50.909483 0 0 0-119.217219 38.392402-119.217219 131.298372 0 13.843286-25.131377 10.883885-33.475416 54.773488l356.295775 0C640.65773 283.422048 622.286314 286.673092 622.286314 272.829805zM578.558393 764.823146l7.017834-0.178055c-1.034563-0.12996-3.330862-0.388856-6.856152-0.792039C578.655607 764.127298 578.558393 764.823146 578.558393 764.823146zM628.464013 580.642356c-3.266393-1.585101-34.542724 183.824679-34.542724 183.824679l-8.345062 0.178055c0.420579 0.048095 1.358951 0.178055 1.358951 0.178055l42.013883 5.385661c0 0 100.945063-32.990369 100.945063-71.479985l0-18.565844C729.894124 643.614573 683.868881 607.762017 628.464013 580.642356zM603.721493 571.505255c-14.716166-6.324032-29.465079-13.923104-44.148499-18.808368-3.622504-1.179872-26.715455-11.577686-12.323677-55.371098l-0.226151 0c34.024931-34.882462 57.960063-68.956511 57.960063-144.316873L351.151104 353.008916c0 76.136028 23.384593 109.903086 57.506738 144.752802 14.813381 38.618553-11.57871 52.962236-17.141402 54.93517-14.877849 5.40101-24.839735 11.837606-39.97648 18.808368-2.716878 1.245364 23.642466 182.044126 25.163099 192.3304 9.444093-1.100054 26.327622-2.944052 45.022403-4.511757l55.372122 97.110735 56.794517-97.095385c18.630313 1.585101 35.449373 3.411703 44.828998 4.511757C580.207963 753.648642 607.376743 572.994166 603.721493 571.505255zM365.705588 765.162884l11.126408-0.339738c0 0-0.128937-0.695848-0.128937-0.986467-4.915963 0.565888-8.344039 0.986467-8.344039 0.986467L365.705588 765.162884z" p-id="2015" fill="#2c2c2c"></path></svg>