<?xml version="1.0" standalone="no"?><!DOCTYPE svg PUBLIC "-//W3C//DTD SVG 1.1//EN" "http://www.w3.org/Graphics/SVG/1.1/DTD/svg11.dtd"><svg t="1661999954828" class="icon" viewBox="0 0 1024 1024" version="1.1" xmlns="http://www.w3.org/2000/svg" p-id="3262" xmlns:xlink="http://www.w3.org/1999/xlink" width="200" height="200"><path d="M516.5 530.6m-428.9 0a428.9 428.9 0 1 0 857.8 0 428.9 428.9 0 1 0-857.8 0Z" fill="#C7000C" p-id="3263"></path><path d="M516.5 530.6m-393.7 0a393.7 393.7 0 1 0 787.4 0 393.7 393.7 0 1 0-787.4 0Z" fill="#FFFFFF" p-id="3264"></path><path d="M512 530.6m-353.9 0a353.9 353.9 0 1 0 707.8 0 353.9 353.9 0 1 0-707.8 0Z" fill="#C7000C" p-id="3265"></path><path d="M520.8 526.8l99.6-247.5c97.3 49.9 159.4 143.5 163.9 246.7l-263.5 0.8zM520.8 526.8l-281.1 1.4c15.6-110 87.6-203.8 189.7-247.5l91.4 246.1zM520.8 526.8l155.8 218.6c-98.8 50.8-216.9 58.8-311.6 0.7l155.8-219.3z" fill="#FFFFFF" p-id="3266"></path></svg>