<?xml version="1.0" standalone="no"?><!DOCTYPE svg PUBLIC "-//W3C//DTD SVG 1.1//EN" "http://www.w3.org/Graphics/SVG/1.1/DTD/svg11.dtd"><svg t="1661999824237" class="icon" viewBox="0 0 1024 1024" version="1.1" xmlns="http://www.w3.org/2000/svg" p-id="1831" xmlns:xlink="http://www.w3.org/1999/xlink" width="200" height="200"><path d="M512.01 713.75c-9.34 0-18.19-4.17-24.13-11.38-22.46-27.26-219.43-269.95-219.43-394.8C268.44 173.25 377.7 64 512.01 64c134.29 0 243.56 109.25 243.56 243.57 0 124.85-196.96 367.54-219.42 394.8a31.34 31.34 0 0 1-24.14 11.38z m0-587.21c-99.82 0-181.03 81.2-181.03 181.03 0 76.44 114.61 239.52 181.03 324.81 66.42-85.29 181.02-248.37 181.02-324.81 0-99.83-81.21-181.03-181.02-181.03z" p-id="1832"></path><path d="M512.01 429.99c-63.22 0-114.65-51.44-114.65-114.65S448.79 200.7 512.01 200.7s114.65 51.44 114.65 114.65-51.44 114.64-114.65 114.64z m0-166.76c-28.73 0-52.11 23.37-52.11 52.11s23.38 52.11 52.11 52.11 52.11-23.37 52.11-52.11-23.38-52.11-52.11-52.11zM858.87 960H227.35c-17.27 0-31.27-14.01-31.27-31.27s14-31.27 31.27-31.27h631.53c17.24 0 31.27-14.03 31.27-31.27 0-17.43-14.03-31.45-31.27-31.45H165.13c-51.73 0-93.8-42.08-93.8-93.8 0-53.07 42.08-95.15 93.8-95.15h90.57c17.27 0 31.27 14.01 31.27 31.27 0 17.26-14 31.27-31.27 31.27h-90.57c-17.24 0-31.27 14.03-31.27 31.27 0 18.59 14.03 32.61 31.27 32.61h693.75c51.73 0 93.8 42.08 93.8 93.8 0 51.91-42.08 93.99-93.81 93.99z" p-id="1833"></path></svg>